<?xml version="1.0" encoding="UTF-8" ?>
<svg version="1.1" width="400" height="40" xmlns="http://www.w3.org/2000/svg" shape-rendering="crispEdges">
<rect x="0" y="0" width="1" height="1" fill="#33313D" />
<rect x="1" y="0" width="1" height="1" fill="#33313D" />
<rect x="2" y="0" width="1" height="1" fill="#33313D" />
<rect x="3" y="0" width="1" height="1" fill="#33313D" />
<rect x="396" y="0" width="1" height="1" fill="#33313D" />
<rect x="397" y="0" width="1" height="1" fill="#33313D" />
<rect x="398" y="0" width="1" height="1" fill="#33313D" />
<rect x="399" y="0" width="1" height="1" fill="#33313D" />
<rect x="0" y="1" width="1" height="1" fill="#33313D" />
<rect x="1" y="1" width="1" height="1" fill="#33313D" />
<rect x="2" y="1" width="1" height="1" fill="#33313D" />
<rect x="3" y="1" width="1" height="1" fill="#33313D" />
<rect x="396" y="1" width="1" height="1" fill="#33313D" />
<rect x="397" y="1" width="1" height="1" fill="#33313D" />
<rect x="398" y="1" width="1" height="1" fill="#33313D" />
<rect x="399" y="1" width="1" height="1" fill="#33313D" />
<rect x="0" y="2" width="1" height="1" fill="#33313D" />
<rect x="1" y="2" width="1" height="1" fill="#33313D" />
<rect x="2" y="2" width="1" height="1" fill="#33313D" />
<rect x="3" y="2" width="1" height="1" fill="#33313D" />
<rect x="396" y="2" width="1" height="1" fill="#33313D" />
<rect x="397" y="2" width="1" height="1" fill="#33313D" />
<rect x="398" y="2" width="1" height="1" fill="#33313D" />
<rect x="399" y="2" width="1" height="1" fill="#33313D" />
<rect x="0" y="3" width="1" height="1" fill="#33313D" />
<rect x="1" y="3" width="1" height="1" fill="#33313D" />
<rect x="2" y="3" width="1" height="1" fill="#33313D" />
<rect x="3" y="3" width="1" height="1" fill="#33313D" />
<rect x="396" y="3" width="1" height="1" fill="#33313D" />
<rect x="397" y="3" width="1" height="1" fill="#33313D" />
<rect x="398" y="3" width="1" height="1" fill="#33313D" />
<rect x="399" y="3" width="1" height="1" fill="#33313D" />
<rect x="0" y="36" width="1" height="1" fill="#33313D" />
<rect x="1" y="36" width="1" height="1" fill="#33313D" />
<rect x="2" y="36" width="1" height="1" fill="#33313D" />
<rect x="3" y="36" width="1" height="1" fill="#33313D" />
<rect x="396" y="36" width="1" height="1" fill="#33313D" />
<rect x="397" y="36" width="1" height="1" fill="#33313D" />
<rect x="398" y="36" width="1" height="1" fill="#33313D" />
<rect x="399" y="36" width="1" height="1" fill="#33313D" />
<rect x="0" y="37" width="1" height="1" fill="#33313D" />
<rect x="1" y="37" width="1" height="1" fill="#33313D" />
<rect x="2" y="37" width="1" height="1" fill="#33313D" />
<rect x="3" y="37" width="1" height="1" fill="#33313D" />
<rect x="396" y="37" width="1" height="1" fill="#33313D" />
<rect x="397" y="37" width="1" height="1" fill="#33313D" />
<rect x="398" y="37" width="1" height="1" fill="#33313D" />
<rect x="399" y="37" width="1" height="1" fill="#33313D" />
<rect x="0" y="38" width="1" height="1" fill="#33313D" />
<rect x="1" y="38" width="1" height="1" fill="#33313D" />
<rect x="2" y="38" width="1" height="1" fill="#33313D" />
<rect x="3" y="38" width="1" height="1" fill="#33313D" />
<rect x="396" y="38" width="1" height="1" fill="#33313D" />
<rect x="397" y="38" width="1" height="1" fill="#33313D" />
<rect x="398" y="38" width="1" height="1" fill="#33313D" />
<rect x="399" y="38" width="1" height="1" fill="#33313D" />
<rect x="0" y="39" width="1" height="1" fill="#33313D" />
<rect x="1" y="39" width="1" height="1" fill="#33313D" />
<rect x="2" y="39" width="1" height="1" fill="#33313D" />
<rect x="3" y="39" width="1" height="1" fill="#33313D" />
<rect x="396" y="39" width="1" height="1" fill="#33313D" />
<rect x="397" y="39" width="1" height="1" fill="#33313D" />
<rect x="398" y="39" width="1" height="1" fill="#33313D" />
<rect x="399" y="39" width="1" height="1" fill="#33313D" />
</svg>